<?xml version="1.0" encoding="UTF-8"?>
<svg xmlns="http://www.w3.org/2000/svg" xmlns:xlink="http://www.w3.org/1999/xlink" viewBox="0 0 5669.29 2834.65">
  <defs>
    <style>
      .cls-1 {
        font-size: 325.21px;
      }

      .cls-1, .cls-2 {
        fill: #231f20;
      }

      .cls-3 {
        letter-spacing: -.08em;
      }

      .cls-4 {
        letter-spacing: -.09em;
      }

      .cls-5 {
        font-family: Montserrat-Regular, Montserrat;
      }

      .cls-5, .cls-6 {
        letter-spacing: -.07em;
      }

      .cls-7 {
        letter-spacing: -.08em;
      }

      .cls-8 {
        letter-spacing: -.08em;
      }

      .cls-8, .cls-9 {
        font-family: Montserrat-Black, Montserrat;
        font-weight: 800;
      }

      .cls-10 {
        letter-spacing: -.07em;
      }

      .cls-11 {
        letter-spacing: -.08em;
      }

      .cls-12 {
        letter-spacing: -.08em;
      }

      .cls-13 {
        fill: url(#Gradient_bez_nazwy_89);
      }

      .cls-6, .cls-14 {
        font-family: MyriadPro-Regular, 'Myriad Pro';
      }

      .cls-2 {
        font-family: Montserrat-ExtraLight, Montserrat;
        font-size: 195.13px;
        font-weight: 200;
      }

      .cls-15 {
        letter-spacing: -.09em;
      }

      .cls-16 {
        fill: url(#Gradient_bez_nazwy_121);
      }

      .cls-9 {
        letter-spacing: -.07em;
      }

      .cls-17 {
        letter-spacing: -.09em;
      }

      .cls-14 {
        letter-spacing: -.12em;
      }
    </style>
    <linearGradient id="Gradient_bez_nazwy_89" data-name="Gradient bez nazwy 89" x1="1438.93" y1="527.44" x2="1328.61" y2="1501.96" gradientUnits="userSpaceOnUse">
      <stop offset="0" stop-color="#00a995"/>
      <stop offset=".38" stop-color="#176b7b"/>
      <stop offset=".43" stop-color="#246978"/>
      <stop offset=".52" stop-color="#376774"/>
      <stop offset=".64" stop-color="#5d4e59"/>
      <stop offset=".75" stop-color="#7b3c45"/>
      <stop offset=".81" stop-color="#87353e"/>
      <stop offset=".9" stop-color="#ad2b33"/>
      <stop offset="1" stop-color="#da2128"/>
    </linearGradient>
    <linearGradient id="Gradient_bez_nazwy_121" data-name="Gradient bez nazwy 121" x1="1782.26" y1="718.31" x2="626.21" y2="1458.28" gradientUnits="userSpaceOnUse">
      <stop offset="0" stop-color="#005c66"/>
      <stop offset=".31" stop-color="#36545c"/>
      <stop offset=".34" stop-color="#365861"/>
      <stop offset=".47" stop-color="#376774"/>
      <stop offset=".63" stop-color="#4e4750"/>
      <stop offset=".79" stop-color="#622c33"/>
      <stop offset=".88" stop-color="#6a2228"/>
      <stop offset="1" stop-color="#5e0000"/>
    </linearGradient>
  </defs>
  <g id="Warstwa_1" data-name="Warstwa 1">
    <g>
      <path class="cls-13" d="M2019.96,989.05c-6.79-10.77-13.73-21.23-20.82-31.4-15.74-22.6-32.31-43.91-49.61-63.78-116.09-112.31-263.66-168.43-440.41-157.58-229.42,14.03-373.79,158.8-472.04,355.66-23.05,46.26-49.02,63.4-99,63.78-102.36.83-204.8,8.11-323.65,13.65-1.04.3-2.24.45-3.36.53,21.26,21.61,40.74,40.95,58.12,60.29,12.09,13.35,23.13,26.77,33.05,40.95,13.73,19.57,28.13,35.34,43.42,47.32,41.63,32.84,90.05,37.69,149.51,14.03,12.98-5.16,29.69-.68,41.26-.68,2.16,12.97,4.55,25.71,7.24,38.22,47.3,227.35,171.75,391.46,391.09,471.62,215.24,78.49,399.97-5.61,571.12-130.59-2.76-7.74-5.6-15.47-8.36-23.21-22.53,11.53-46.56,20.85-67.37,34.88-257.02,173.05-510.54,81.9-656.25-90.39-65.88-77.81-109.67-172.22-121.98-266.26-2.39-17.97.9-45.58,8.43-62.79,3.21-7.28,7.16-12.66,11.71-14.71,84.83-37.92,173.61-66.81,262.32-99.34,9.62,19.87,16.26,31.77,21.34,44.29,58.12,143.48,112.51,288.7,176.37,429.45,17.61,38.83,59.84,81.07,97.96,90.02,24.02,5.69,71.18-41.86,91.1-75.76,45.21-76.97,79.98-160.31,121.69-246.46,12.24,41.94,18.35,83.65,36.63,118.91,14.55,28.06,40.96,60.67,67.97,67.57,18.06,4.55,54.17-27.68,68.94-51.72,116.46-190.57,123.55-385.92,3.58-576.49ZM1959.53,1488.65c-11.34-59.91-22.68-105.26-27.9-151.21-6.27-55.13-4.4-111.25-12.31-166-2.69-18.81-24.7-49.44-36.86-48.91-20.37.83-47.6,17.75-58.34,36.02-29.1,49.52-50.58,103.67-76.25,155.46-11.94,24.12-26.34,47.02-39.69,70.45l-23.95,3.56c-19.85-55.97-44.76-110.79-58.19-168.35-14.18-60.52-15.74-123.91-25.89-185.49-21.79-132.1-120.27-170.4-230.09-94.64-56.18,38.83-117.58,70.22-177.87,102.68-11.56,6.29-26.41,6.37-43.35,8.04-3.73.38-7.61.83-11.56,1.44,119.3-229.17,425.71-313.42,647.45-183.97,51.48,30.03,95.13,67.11,130.49,108.82,125.04,147.35,146.53,352.71,44.32,512.11Z"/>
      <path class="cls-16" d="M1948.7,893.28c-116.05-111.69-263.06-167.75-439.21-157-229.42,14.03-373.79,158.8-472.04,355.66-23.13,46.26-49.09,63.4-99,63.78-102.44.83-204.87,8.11-323.72,13.65-1.19.3-2.46.45-3.66.61,13.35,14.33,26.11,27.38,38.27,39.74,1.12-.08,2.31-.23,3.36-.53,118.85-5.54,221.29-12.82,323.65-13.65,49.99-.38,75.95-17.52,99-63.78,98.26-196.87,242.63-341.63,472.04-355.66,160.92-9.87,297.38,36.25,408.18,129.28.33-1.12.73-2.21,1.14-3.3-3.23-2.45-5.88-5.45-8.01-8.79Z"/>
    </g>
  </g>
  <g id="Warstwa_2" data-name="Warstwa 2">
    <text class="cls-1" transform="translate(2168.75 1361.07)"><tspan class="cls-8" x="0" y="0">P</tspan><tspan class="cls-9" x="213.99" y="0">BMEDIA</tspan><tspan class="cls-6" x="1492.7" y="0"> </tspan><tspan class="cls-14" x="1537.25" y="0">	</tspan><tspan class="cls-5" x="1567.83" y="0">Studio</tspan></text>
    <text class="cls-2" transform="translate(2168.75 1616.23)"><tspan class="cls-12" x="0" y="0">S</tspan><tspan class="cls-11" x="101.27" y="0">TRO</tspan><tspan class="cls-17" x="469.07" y="0">N</tspan><tspan class="cls-10" x="610.54" y="0">Y &amp; SKLE</tspan><tspan class="cls-7" x="1335.61" y="0">P</tspan><tspan class="cls-10" x="1457.95" y="0">Y INTERNE</tspan><tspan class="cls-3" x="2379.52" y="0">T</tspan><tspan class="cls-4" x="2471.22" y="0">O</tspan><tspan class="cls-15" x="2616.01" y="0">W</tspan><tspan class="cls-11" x="2810.74" y="0">E</tspan></text>
  </g>
</svg>